<?xml version="1.0" encoding="utf-8"?>
<!-- Generator: Adobe Illustrator 26.0.2, SVG Export Plug-In . SVG Version: 6.00 Build 0)  -->
<svg version="1.1" id="Layer_1" xmlns="http://www.w3.org/2000/svg" xmlns:xlink="http://www.w3.org/1999/xlink" x="0px" y="0px"
	 viewBox="0 0 20 20" style="enable-background:new 0 0 20 20;" xml:space="preserve">
<style type="text/css">
	.st0{fill-rule:evenodd;clip-rule:evenodd;fill:#FFFFFF;}
	.st1{fill:#727272;}
</style>
<path class="st0" d="M19.7,0.3c-0.4-0.4-1-0.4-1.4,0L10,8.6L1.7,0.3c-0.4-0.4-1-0.4-1.4,0s-0.4,1,0,1.4L8.6,10l-8.3,8.3
	c-0.4,0.4-0.4,1,0,1.4C0.5,19.9,0.7,20,1,20c0.3,0,0.5-0.1,0.7-0.3l8.3-8.3l8.3,8.3c0.2,0.2,0.5,0.3,0.7,0.3c0.3,0,0.5-0.1,0.7-0.3
	c0.4-0.4,0.4-1,0-1.4L11.4,10l8.3-8.3C20.1,1.3,20.1,0.7,19.7,0.3z"/>
<path class="st1" d="M19.7,0.3c-0.4-0.4-1-0.4-1.4,0L10,8.6L1.7,0.3c-0.4-0.4-1-0.4-1.4,0s-0.4,1,0,1.4L8.6,10l-8.3,8.3
	c-0.4,0.4-0.4,1,0,1.4C0.5,19.9,0.7,20,1,20c0.3,0,0.5-0.1,0.7-0.3l8.3-8.3l8.3,8.3c0.2,0.2,0.5,0.3,0.7,0.3c0.3,0,0.5-0.1,0.7-0.3
	c0.4-0.4,0.4-1,0-1.4L11.4,10l8.3-8.3C20.1,1.3,20.1,0.7,19.7,0.3z"/>
</svg>
